HIERARCHY
ROOT Hips
{
	OFFSET -0.001795 -0.223333 0.028219
	CHANNELS 6 Xposition Yposition Zposition Zrotation Yrotation Xrotation 
	JOINT LeftUpLeg
	{
		OFFSET 0.069520 -0.091406 -0.006815
		CHANNELS 3 Zrotation Yrotation Xrotation
		JOINT LeftLeg
		{
			OFFSET 0.034277 -0.375199 -0.004496
			CHANNELS 3 Zrotation Yrotation Xrotation
			JOINT LeftFoot
			{
				OFFSET -0.013596 -0.397961 -0.043693
				CHANNELS 3 Zrotation Yrotation Xrotation
				JOINT LeftToe
				{
					OFFSET 0.026358 -0.055791 0.119288
					CHANNELS 3 Zrotation Yrotation Xrotation
					End Site
					{
						OFFSET 0.000000 0.000000 0.000000
					}
				}
			}
		}
	}
	JOINT RightUpLeg
	{
		OFFSET -0.067670 -0.090522 -0.004320
		CHANNELS 3 Zrotation Yrotation Xrotation
		JOINT RightLeg
		{
			OFFSET -0.038290 -0.382569 -0.008850
			CHANNELS 3 Zrotation Yrotation Xrotation
			JOINT RightFoot
			{
				OFFSET 0.015774 -0.398415 -0.042312
				CHANNELS 3 Zrotation Yrotation Xrotation
				JOINT RightToe
				{
					OFFSET -0.025372 -0.048144 0.123348
					CHANNELS 3 Zrotation Yrotation Xrotation
					End Site
					{
						OFFSET 0.000000 0.000000 0.000000
					}
				}
			}
		}
	}
	JOINT Spine
	{
		OFFSET -0.002533 0.108963 -0.026696
		CHANNELS 3 Zrotation Yrotation Xrotation
		JOINT Spine1
		{
			OFFSET 0.005487 0.135180 0.001092
			CHANNELS 3 Zrotation Yrotation Xrotation
			JOINT Spine2
			{
				OFFSET 0.001457 0.052922 0.025425
				CHANNELS 3 Zrotation Yrotation Xrotation
				JOINT Neck
				{
					OFFSET -0.002778 0.213870 -0.042857
					CHANNELS 3 Zrotation Yrotation Xrotation
					JOINT Head
					{
						OFFSET 0.005152 0.064970 0.051349
						CHANNELS 3 Zrotation Yrotation Xrotation
						End Site
						{
							OFFSET 0.000000 0.000000 0.000000
						}
					}
				}
				JOINT LeftShoulder
				{
					OFFSET 0.078845 0.121749 -0.034090
					CHANNELS 3 Zrotation Yrotation Xrotation
					JOINT LeftArm
					{
						OFFSET 0.090977 0.030469 -0.008868
						CHANNELS 3 Zrotation Yrotation Xrotation
						JOINT LeftForeArm
						{
							OFFSET 0.259612 -0.012772 -0.027456
							CHANNELS 3 Zrotation Yrotation Xrotation
							JOINT LeftHand
							{
								OFFSET 0.249234 0.008986 -0.001171
								CHANNELS 3 Zrotation Yrotation Xrotation
								End Site
								{
									OFFSET 0.000000 0.000000 0.000000
								}
							}
						}
					}
				}
				JOINT RightShoulder
				{
					OFFSET -0.081759 0.118833 -0.038615
					CHANNELS 3 Zrotation Yrotation Xrotation
					JOINT RightArm
					{
						OFFSET -0.096012 0.032551 -0.009143
						CHANNELS 3 Zrotation Yrotation Xrotation
						JOINT RightForeArm
						{
							OFFSET -0.253742 -0.013329 -0.021401
							CHANNELS 3 Zrotation Yrotation Xrotation
							JOINT RightHand
							{
								OFFSET -0.255298 0.007772 -0.005559
								CHANNELS 3 Zrotation Yrotation Xrotation
								End Site
								{
									OFFSET 0.000000 0.000000 0.000000
								}
							}
						}
					}
				}
			}
		}
	}
}
MOTION
Frames: 7
Frame Time: 0.050000
0.000000 0.932690 0.000000 3.782726 19.811902 25.312303 2.235272 -2.994107 -25.812964 1.900042 -0.885450 9.927489 1.867195 8.797355 8.223192 0.000000 0.000000 0.000000 -2.100107 -0.106071 -45.367887 -3.069628 0.870106 20.246554 1.486956 1.724523 7.174107 0.000000 0.000000 0.000000 5.158760 -5.005716 29.500766 4.084682 -1.262554 -5.915653 1.464913 -1.248191 13.597347 -1.363826 3.108527 -24.447502 0.000000 0.000000 0.000000 8.928569 -26.013352 8.455537 -15.447220 -51.807665 0.649887 71.558353 -41.165931 -28.104737 0.000000 0.000000 0.000000 -17.519975 29.439742 6.862530 14.034505 48.191916 3.076627 -66.442997 24.706659 -10.711581 0.000000 0.000000 0.000000 
-0.000074 0.933710 0.003149 3.095363 19.509131 25.141133 2.699711 -2.963432 -26.096802 1.999356 -1.026503 11.215719 2.231804 9.181555 7.759811 0.000000 0.000000 0.000000 -0.922916 0.541863 -43.584736 -2.705143 0.779047 16.532888 2.086456 2.647003 8.424787 0.000000 0.000000 0.000000 5.280238 -4.575727 27.419358 3.274215 -1.015370 -5.274123 2.103277 -0.571943 13.722850 -2.689702 3.930633 -27.191741 0.000000 0.000000 0.000000 7.502786 -22.940667 7.648056 -19.087636 -52.290859 2.073310 79.059813 -49.819958 -39.380762 0.000000 0.000000 0.000000 -15.954094 27.757770 6.785983 19.410387 50.332580 5.607974 -70.873560 24.356575 -10.899394 0.000000 0.000000 0.000000 
-0.000082 0.932116 0.006563 2.663015 18.831818 24.441694 2.768250 -2.757863 -25.078362 1.970187 -1.050705 11.594928 1.974999 7.508097 5.428849 0.000000 0.000000 0.000000 -0.501089 0.847297 -43.645290 -2.904835 0.863450 17.572168 1.346803 1.555049 6.618803 0.000000 0.000000 0.000000 6.309818 -4.535031 25.810992 1.111133 -0.145748 -5.740370 2.951321 -1.923421 14.460482 -1.842598 3.319376 -26.158195 0.000000 0.000000 0.000000 5.461545 -22.392506 7.626289 -22.892260 -51.786443 3.808774 82.982618 -51.570284 -42.828541 0.000000 0.000000 0.000000 -13.436911 26.282630 7.014516 21.195845 49.189396 5.615491 -75.407666 31.246513 -17.168921 0.000000 0.000000 0.000000 
0.000045 0.933730 0.009962 2.741223 18.445706 24.033849 1.969755 -2.839432 -25.053874 3.226431 -1.546572 13.921030 2.149252 7.681245 5.182108 0.000000 0.000000 0.000000 -0.394179 0.991628 -42.555948 -2.825491 0.841714 16.594054 1.972080 2.967082 6.366928 0.000000 0.000000 0.000000 6.118946 -4.128181 24.394755 0.770783 -0.047897 -5.295850 3.408037 -3.191404 14.743419 -3.660281 4.054319 -27.516819 0.000000 0.000000 0.000000 3.712131 -20.929959 7.272540 -25.774677 -49.819924 4.837481 89.268876 -52.841444 -48.128665 0.000000 0.000000 0.000000 -12.484856 25.007053 6.838633 22.540438 50.401056 6.125566 -80.512993 32.733584 -20.312032 0.000000 0.000000 0.000000 
0.000052 0.934225 0.013648 3.238640 18.882671 23.402105 1.659393 -2.718193 -23.877444 2.377309 -1.455927 14.510281 2.226323 7.852246 5.290463 0.000000 0.000000 0.000000 -0.846195 0.803448 -41.344295 -3.234067 0.923583 16.511724 1.583375 1.993818 6.973110 0.000000 0.000000 0.000000 6.062136 -3.890369 23.293807 1.502518 -0.339938 -5.084811 2.801812 -3.568599 14.526576 -3.109180 3.773908 -25.615335 0.000000 0.000000 0.000000 2.853337 -21.743578 7.585334 -27.475615 -49.646210 5.479893 94.075197 -51.748236 -50.750475 0.000000 0.000000 0.000000 -10.931518 24.220209 6.927110 22.388759 49.935740 5.896953 -83.275173 33.910934 -22.321896 0.000000 0.000000 0.000000 
0.000009 0.934670 0.016128 3.898071 19.496665 22.759042 1.400904 -2.622766 -22.884015 2.018027 -1.613002 16.271282 1.570154 6.646659 5.349095 0.000000 0.000000 0.000000 -1.311456 0.544054 -40.802147 -3.507031 0.971347 17.307003 2.175024 3.143039 7.377892 0.000000 0.000000 0.000000 6.055457 -3.703078 22.310033 1.704084 -0.419751 -4.959078 2.676794 -3.892240 15.105827 -3.054094 3.802386 -26.084983 0.000000 0.000000 0.000000 5.062289 -21.068560 7.124273 -27.631504 -52.438613 6.082041 97.826040 -47.648417 -49.521177 0.000000 0.000000 0.000000 -12.314606 22.940973 6.184441 22.314538 49.382980 5.853959 -85.524781 31.556135 -21.067843 0.000000 0.000000 0.000000 
0.000028 0.935404 0.016898 4.030047 19.442074 21.790857 1.364019 -2.542732 -22.361996 1.596662 -1.675315 17.533640 1.549349 6.193803 4.630723 0.000000 0.000000 0.000000 -1.773952 0.455048 -39.863121 -3.416937 0.939855 17.995249 2.195808 3.328030 6.890786 0.000000 0.000000 0.000000 5.575360 -3.454146 21.917243 2.449691 -0.670834 -5.373554 2.429763 -3.773205 15.262792 -2.461515 3.561360 -26.255379 0.000000 0.000000 0.000000 6.594387 -20.852627 6.903784 -23.200868 -54.815391 4.629061 97.634512 -40.839638 -42.413197 0.000000 0.000000 0.000000 -12.955259 23.663895 6.194703 16.889016 49.318245 3.799806 -83.505293 25.985433 -15.789783 0.000000 0.000000 0.000000 
